<svg width="52" height="59" viewBox="0 0 52 59" fill="none" xmlns="http://www.w3.org/2000/svg">
<foreignObject x="-102" y="-102" width="256" height="256"><div xmlns="http://www.w3.org/1999/xhtml" style="backdrop-filter:blur(51px);clip-path:url(#bgblur_0_4631_5796_clip_path);height:100%;width:100%"></div></foreignObject><g filter="url(#filter0_i_4631_5796)" data-figma-bg-blur-radius="102">
<circle cx="26" cy="26" r="26" fill="white" fill-opacity="0.02"/>
<circle cx="26" cy="26" r="25.5" stroke="#101212" stroke-opacity="0.05"/>
</g>
<g opacity="0.3" filter="url(#filter1_f_4631_5796)">
<path d="M25.4615 23.0476C25.8194 23.0154 26.1799 23.0154 26.5377 23.0476L26.7115 23.0632C27.0693 23.0954 27.4238 23.1591 27.7701 23.2546L27.9391 23.3015C28.2853 23.3971 28.6223 23.5236 28.9459 23.6794L29.1031 23.7556C29.4268 23.9115 29.7363 24.0962 30.0269 24.3074L30.1686 24.4099C30.4592 24.621 30.7299 24.8583 30.9781 25.1179L31.0992 25.2439C31.3474 25.5035 31.5722 25.785 31.7701 26.0847L31.8668 26.2312C32.0647 26.531 32.2354 26.8481 32.3766 27.1785L32.4449 27.3396C32.586 27.6698 32.697 28.012 32.7769 28.362L32.816 28.5329C32.8959 28.8831 32.9444 29.2396 32.9605 29.5984L32.9684 29.7732C32.9845 30.1321 32.9687 30.4923 32.9205 30.8484L32.8971 31.0212C32.8488 31.3772 32.7688 31.7284 32.6578 32.0701L32.6031 32.2361C32.4921 32.5777 32.3505 32.909 32.1803 33.2253L32.0973 33.3796C31.9271 33.6958 31.7293 33.9963 31.5055 34.2771L31.3961 34.4138C31.1721 34.6947 30.9235 34.9557 30.6529 35.1921L30.5211 35.3064C30.2506 35.5427 29.9593 35.7549 29.651 35.9392L29.5006 36.029C29.1923 36.2132 28.8681 36.3696 28.5318 36.4958L28.3678 36.5574C28.0314 36.6836 27.6842 36.7793 27.3307 36.8435L27.1588 36.8747C26.8054 36.9389 26.4467 36.9704 26.0875 36.9704H25.9127C25.5536 36.9704 25.1947 36.9388 24.8414 36.8747L24.6686 36.8435C24.3151 36.7793 23.9677 36.6836 23.6314 36.5574L23.4684 36.4958C23.132 36.3696 22.8071 36.2133 22.4986 36.029L22.3492 35.9392C22.0408 35.7549 21.7487 35.5428 21.4781 35.3064L21.3473 35.1921C21.0767 34.9557 20.8271 34.6947 20.6031 34.4138L20.4947 34.2771C20.2707 33.9962 20.0722 33.696 19.9019 33.3796L19.8189 33.2253C19.6487 32.909 19.5071 32.5777 19.3961 32.2361L19.3424 32.0701C19.2314 31.7284 19.1513 31.3772 19.1031 31.0212L19.0797 30.8484C19.0315 30.4923 19.0147 30.1321 19.0309 29.7732L19.0387 29.5984C19.0548 29.2396 19.1033 28.8831 19.1832 28.5329L19.2223 28.362C19.3022 28.012 19.4132 27.6698 19.5543 27.3396L19.6236 27.1785C19.7648 26.8481 19.9355 26.531 20.1334 26.2312L20.2291 26.0847C20.427 25.7849 20.6518 25.5035 20.9 25.2439L21.0211 25.1179C21.2693 24.8583 21.5401 24.621 21.8307 24.4099L21.9723 24.3074C22.2629 24.0962 22.5724 23.9115 22.8961 23.7556L23.0533 23.6794C23.377 23.5235 23.7148 23.3971 24.0611 23.3015L24.2291 23.2546C24.5754 23.159 24.9299 23.0954 25.2877 23.0632L25.4615 23.0476Z" fill="#6B3D0F"/>
</g>
<g opacity="0.4" filter="url(#filter2_f_4631_5796)">
<path d="M25.462 28.0476C25.8198 28.0154 26.1803 28.0154 26.5382 28.0476L26.8907 28.0788C27.2486 28.111 27.603 28.1756 27.9493 28.2712L28.2911 28.365C28.6373 28.4605 28.9743 28.5871 29.2979 28.7429L29.6173 28.8972C29.9408 29.053 30.2496 29.2379 30.5401 29.449L30.8272 29.657C31.1178 29.8681 31.3886 30.1054 31.6368 30.365L31.8819 30.6208C32.1301 30.8805 32.355 31.1619 32.5528 31.4617L32.7472 31.7576C32.9451 32.0574 33.1157 32.3745 33.2569 32.7048L33.3966 33.03C33.5378 33.3604 33.6487 33.7032 33.7286 34.0535L33.8077 34.3982C33.8877 34.7485 33.9361 35.1057 33.9522 35.4646L33.9679 35.8181C33.984 36.177 33.9682 36.5373 33.92 36.8933L33.8722 37.2439C33.8239 37.5999 33.7439 37.951 33.6329 38.2927L33.5235 38.6296C33.4125 38.9713 33.2709 39.3025 33.1007 39.6189L32.9327 39.9304C32.7625 40.2467 32.5639 40.547 32.3399 40.8279L32.1192 41.1052C31.8953 41.386 31.6466 41.6462 31.3761 41.8826L31.1095 42.116C30.839 42.3522 30.5476 42.5636 30.2394 42.7478L29.9347 42.9294C29.6263 43.1137 29.3022 43.27 28.9659 43.3962L28.6339 43.5212C28.2976 43.6474 27.9502 43.7432 27.5968 43.8074L27.2491 43.8699C26.8956 43.934 26.5361 43.9665 26.1769 43.9665H25.8233C25.4641 43.9665 25.1055 43.934 24.752 43.8699L24.4034 43.8074C24.0499 43.7432 23.7027 43.6475 23.3663 43.5212L23.0343 43.3962C22.6981 43.27 22.3738 43.1136 22.0655 42.9294L21.7618 42.7478C21.4535 42.5636 21.1622 42.3522 20.8917 42.116L20.6241 41.8826C20.3537 41.6462 20.1049 41.386 19.881 41.1052L19.6603 40.8279C19.4363 40.5471 19.2377 40.2467 19.0675 39.9304L18.8995 39.6189C18.7293 39.3025 18.5877 38.9713 18.4767 38.6296L18.3673 38.2927C18.2563 37.951 18.1762 37.5999 18.128 37.2439L18.0811 36.8933C18.0329 36.5373 18.0162 36.177 18.0323 35.8181L18.0479 35.4646C18.0641 35.1057 18.1125 34.7484 18.1925 34.3982L18.2716 34.0535C18.3515 33.7032 18.4624 33.3604 18.6036 33.03L18.7433 32.7048C18.8844 32.3745 19.0551 32.0574 19.253 31.7576L19.4483 31.4617C19.6462 31.1619 19.871 30.8805 20.1192 30.6208L20.3634 30.365C20.6117 30.1053 20.8833 29.8681 21.1739 29.657L21.4601 29.449C21.7507 29.2378 22.0602 29.0531 22.3839 28.8972L22.7022 28.7429C23.0259 28.587 23.3637 28.4606 23.7101 28.365L24.0509 28.2712C24.3972 28.1757 24.7517 28.1111 25.1095 28.0788L25.462 28.0476Z" fill="#6B3D0F"/>
</g>
<path d="M25.462 15.0476C25.8198 15.0154 26.1803 15.0154 26.5382 15.0476L27.4268 15.1277C27.7844 15.1599 28.1384 15.2236 28.4845 15.3191L29.3448 15.5564C29.6911 15.6519 30.028 15.7785 30.3516 15.9343L31.1554 16.322C31.4791 16.4779 31.7885 16.6626 32.0792 16.8738L32.8009 17.3982C33.0913 17.6092 33.3623 17.8457 33.6104 18.1052L34.2266 18.7497C34.4749 19.0094 34.6996 19.2917 34.8975 19.5915L35.3888 20.3357C35.5867 20.6355 35.7573 20.9526 35.8985 21.2829L36.2491 22.1033C36.3903 22.4336 36.5022 22.7764 36.5821 23.1267L36.7804 23.9958C36.8603 24.3461 36.9088 24.7033 36.9249 25.0622L36.9649 25.9529C36.981 26.3116 36.9643 26.6712 36.9161 27.0271L36.797 27.9118C36.7487 28.2678 36.6687 28.6191 36.5577 28.9607L36.2813 29.8083C36.1703 30.1499 36.0296 30.4813 35.8595 30.7976L35.4366 31.5837C35.2664 31.9 35.0678 32.2004 34.8438 32.4812L34.2872 33.1785C34.0632 33.4593 33.8145 33.7195 33.544 33.9558L32.8722 34.5427C32.6016 34.7791 32.3104 34.9913 32.002 35.1755L31.2364 35.6326C30.9281 35.8168 30.6039 35.9731 30.2677 36.0993L29.4317 36.4128C29.0956 36.539 28.7488 36.6348 28.3956 36.699L27.5177 36.8581C27.1642 36.9223 26.8056 36.9548 26.4464 36.9548H25.5538C25.1946 36.9548 24.8359 36.9223 24.4825 36.8581L23.6046 36.699C23.2513 36.6348 22.9046 36.539 22.5684 36.4128L21.7325 36.0993C21.3963 35.9731 21.0721 35.8168 20.7638 35.6326L19.9981 35.1755C19.6897 34.9913 19.3986 34.7791 19.128 34.5427L18.4561 33.9558C18.1856 33.7195 17.937 33.4593 17.713 33.1785L17.1563 32.4812C16.9324 32.2004 16.7338 31.9 16.5636 31.5837L16.1417 30.7976C15.9714 30.4812 15.8299 30.15 15.7188 29.8083L15.4425 28.9607C15.3315 28.6191 15.2514 28.2678 15.2032 27.9118L15.0841 27.0271C15.0359 26.6712 15.0191 26.3116 15.0352 25.9529L15.0753 25.0622C15.0914 24.7033 15.1399 24.3461 15.2198 23.9958L15.4181 23.1267C15.498 22.7764 15.6099 22.4336 15.7511 22.1033L16.1016 21.2829C16.2428 20.9526 16.4135 20.6355 16.6114 20.3357L17.1026 19.5915C17.3006 19.2917 17.5252 19.0094 17.7735 18.7497L18.3897 18.1052C18.6378 17.8457 18.9089 17.6092 19.1993 17.3982L19.921 16.8738C20.2116 16.6626 20.5211 16.4779 20.8448 16.322L21.6485 15.9343C21.9721 15.7785 22.3091 15.6519 22.6554 15.5564L23.5157 15.3191C23.8619 15.2235 24.2166 15.1599 24.5743 15.1277L25.462 15.0476Z" fill="url(#paint0_linear_4631_5796)"/>
<g clip-path="url(#clip1_4631_5796)">
<path d="M29.6452 24.9895C29.8073 23.9059 28.9823 23.3234 27.8542 22.9348L28.2202 21.467L27.3266 21.2443L26.9704 22.6735C26.7355 22.6149 26.4943 22.5597 26.2545 22.505L26.6133 21.0664L25.7204 20.8438L25.3542 22.3111C25.1598 22.2669 24.9689 22.2231 24.7837 22.177L24.7847 22.1724L23.5525 21.8647L23.3149 22.819C23.3149 22.819 23.9778 22.971 23.9638 22.9804C24.3256 23.0707 24.3911 23.3102 24.3802 23.5L23.9633 25.1722C23.9882 25.1786 24.0206 25.1877 24.0562 25.202C24.0264 25.1946 23.9947 25.1866 23.9618 25.1787L23.3775 27.5212C23.3332 27.6311 23.221 27.7961 22.968 27.7335C22.977 27.7464 22.3186 27.5714 22.3186 27.5714L21.875 28.5942L23.0378 28.884C23.2541 28.9383 23.4661 28.9951 23.6748 29.0484L23.3051 30.5331L24.1975 30.7557L24.5637 29.2868C24.8075 29.353 25.0441 29.4141 25.2758 29.4716L24.9108 30.9336L25.8044 31.1562L26.1741 29.6744C27.6977 29.9627 28.8434 29.8465 29.3256 28.4683C29.7142 27.3588 29.3063 26.7188 28.5047 26.3014C29.0885 26.1668 29.528 25.7827 29.6452 24.9895ZM27.6037 27.8521C27.3276 28.9617 25.4595 28.3619 24.8538 28.2115L25.3444 26.2446C25.9501 26.3958 27.8923 26.695 27.6037 27.8521ZM27.8801 24.9734C27.6282 25.9826 26.0733 25.4699 25.5689 25.3442L26.0138 23.5603C26.5181 23.686 28.1424 23.9207 27.8801 24.9734Z" fill="#FAFAFA"/>
</g>
<defs>
<filter id="filter0_i_4631_5796" x="-102" y="-102" width="256" height="256" filterUnits="userSpaceOnUse" color-interpolation-filters="sRGB">
<feFlood flood-opacity="0" result="BackgroundImageFix"/>
<feBlend mode="normal" in="SourceGraphic" in2="BackgroundImageFix" result="shape"/>
<feColorMatrix in="SourceAlpha" type="matrix" values="0 0 0 0 0 0 0 0 0 0 0 0 0 0 0 0 0 0 127 0" result="hardAlpha"/>
<feOffset dy="1"/>
<feComposite in2="hardAlpha" operator="arithmetic" k2="-1" k3="1"/>
<feColorMatrix type="matrix" values="0 0 0 0 1 0 0 0 0 1 0 0 0 0 1 0 0 0 0.15 0"/>
<feBlend mode="normal" in2="shape" result="effect1_innerShadow_4631_5796"/>
</filter>
<clipPath id="bgblur_0_4631_5796_clip_path" transform="translate(102 102)"><circle cx="26" cy="26" r="26"/>
</clipPath><filter id="filter1_f_4631_5796" x="13.0249" y="17.0234" width="25.9497" height="25.9453" filterUnits="userSpaceOnUse" color-interpolation-filters="sRGB">
<feFlood flood-opacity="0" result="BackgroundImageFix"/>
<feBlend mode="normal" in="SourceGraphic" in2="BackgroundImageFix" result="shape"/>
<feGaussianBlur stdDeviation="3" result="effect1_foregroundBlur_4631_5796"/>
</filter>
<filter id="filter2_f_4631_5796" x="3.02637" y="13.0234" width="45.9478" height="45.9453" filterUnits="userSpaceOnUse" color-interpolation-filters="sRGB">
<feFlood flood-opacity="0" result="BackgroundImageFix"/>
<feBlend mode="normal" in="SourceGraphic" in2="BackgroundImageFix" result="shape"/>
<feGaussianBlur stdDeviation="7.5" result="effect1_foregroundBlur_4631_5796"/>
</filter>
<linearGradient id="paint0_linear_4631_5796" x1="26" y1="15.0234" x2="26" y2="36.9549" gradientUnits="userSpaceOnUse">
<stop stop-color="#F4BA45"/>
<stop offset="1" stop-color="#F19C3B"/>
</linearGradient>
<clipPath id="clip1_4631_5796">
<rect width="11" height="11" fill="white" transform="translate(20.5 20.5)"/>
</clipPath>
</defs>
</svg>
